<?xml version="1.0" encoding="UTF-8"?>
<svg id="Ebene_2" data-name="Ebene 2" xmlns="http://www.w3.org/2000/svg" xmlns:xlink="http://www.w3.org/1999/xlink" viewBox="0 0 682.4 633.18">
  <defs>
    <style>
      .cls-1 {
        fill: url(#Unbenannter_Verlauf_6);
      }

      .cls-1, .cls-2, .cls-3 {
        stroke-width: 0px;
      }

      .cls-2 {
        fill: url(#Unbenannter_Verlauf_5);
      }

      .cls-3 {
        fill: #3c3c3b;
      }
    </style>
    <linearGradient id="Unbenannter_Verlauf_5" data-name="Unbenannter Verlauf 5" x1="7.23" y1="473.52" x2="325.28" y2="473.52" gradientUnits="userSpaceOnUse">
      <stop offset="0" stop-color="#3dc0f0"/>
      <stop offset="0" stop-color="#3ebced"/>
      <stop offset=".08" stop-color="#46a2d9"/>
      <stop offset=".15" stop-color="#4d8fcc"/>
      <stop offset=".22" stop-color="#5083c3"/>
      <stop offset=".3" stop-color="#5280c1"/>
      <stop offset=".55" stop-color="#5aa9df"/>
      <stop offset=".89" stop-color="#2259a6"/>
    </linearGradient>
    <linearGradient id="Unbenannter_Verlauf_6" data-name="Unbenannter Verlauf 6" x1="222.96" y1="223.23" x2="682.4" y2="223.23" gradientUnits="userSpaceOnUse">
      <stop offset="0" stop-color="#6fc4c4"/>
      <stop offset=".01" stop-color="#76c5b9"/>
      <stop offset=".06" stop-color="#8ec997"/>
      <stop offset=".12" stop-color="#a1cd7d"/>
      <stop offset=".17" stop-color="#afcf6a"/>
      <stop offset=".22" stop-color="#b7d15e"/>
      <stop offset=".28" stop-color="#bad25b"/>
      <stop offset=".67" stop-color="#f18f34"/>
      <stop offset=".89" stop-color="#e95f32"/>
      <stop offset="1" stop-color="#e3312d"/>
    </linearGradient>
  </defs>
  <g id="Ebene_1-2" data-name="Ebene 1">
    <g>
      <path class="cls-3" d="M317.77,383.64c-5.33-25.35-47.19,34.71-53.88,36.79,0,0-45.85-14.52-45.85-14.52l-14.52-45.85c1.92-6.42,62.21-48.71,36.79-53.88-72.99-4.96-99.6,61.25-90.61,118.28-19.5,33.36-195.7,139.48-138.23,189.32,49.79,57.61,155.13-119.98,188.06-139.53,56.85,9.09,123.34-17.75,118.25-90.61ZM49.37,596.24c-13.84,14.25-35.91-7.81-21.66-21.65,13.84-14.25,35.91,7.81,21.66,21.65Z"/>
      <path class="cls-3" d="M435.53,247.42h-44.4l-6.36,20.88h-39.96l47.7-126.72h42.84l47.52,126.72h-40.98l-6.36-20.88h0ZM427.25,219.94l-13.86-45.54-13.92,45.54h27.78ZM493.91,141.52s39.3,0,39.3,0v126.72s-39.3,0-39.3,0v-126.72ZM463.97,11.62c-29.96,26.8-11.34,26.61-41.22,0-33.14-24.73-83.41-4.82-96.84,32.4-1.8,3.18-.85,9.71-5.86,9.74-37.71,6.41-63.21,44.41-64.06,81.93,2.89,11.37-8.95,15.05-15.15,21.9-26.97,24.6-33.56,66.2-13.14,96.68,4.09,9.11,14.55,14.96,18.12,23.58-7.24,32.73,9.19,67.39,36.36,85.62,11.51,7.84,24.35,12.87,38.1,13.56,1.62-.06,3.12,1.08,3.48,2.76,12.25,56.12,92.42,70.17,119.76,17.22,7.68-.44,12.57,17.74,20.16,20.76,35.64,29.81,93.92,3.61,104.94-38.76,16.96-8.28,38.45-15.32,49.5-34.74,13.48-16.99,14.68-39.72,17.64-60.12,9.76-6.72,18.02-14.25,24.72-23.34,25.68-32.59,15.79-79.73-14.76-105.36,1.27-25.01-.77-53.12-19.62-72.84-14.84-17.44-36.52-30.08-59.58-29.76-17.27-39.48-59.51-70.66-102.54-41.22h0ZM562.07,79.18c20.74-9.63,47.25,15.47,55.62,34.44,8.79,15.64,2.25,32.69,1.74,48.84,10.64,13.35,27.07,23.7,30.54,41.94,12.15,51.49-39.14,54.42-39.96,77.34,2.39,17.78-1.68,35.55-11.4,49.56-5.75,7.68-21.91,26.09-30.72,18.54-7.04-21.93-24.33-38.28-47.16-40.33-9.3,2.6-10.43,16.62-1.62,20.76,73.88,26.18-14.82,118.54-50.7,58.5-9.21-11.79-2.51-36.92-22.38-36.12-6.34-.17-14.16,3.09-13.86,10.08-19.55,99.5-145.07,10.63-56.7-32.28,8.89-4.22,7.61-18.05-1.62-20.76-23.7,2.25-41.12,19.11-48.9,41.7-18.95,8.78-43.85-15.93-52.02-33.11-9.33-15.85-3.15-33.32-2.22-49.86-18.33-18.67-40.23-41.72-28.86-70.62,5.4-18.85,23.87-28.62,37.2-41.46-1.25-31.04,6.91-69.47,41.4-78.66,1.8-.54,3.78.48,4.32,2.28,4.16,12.82,17.72,39.96,33.42,26.94,12.75-17.8-33.72-31.77-3.66-67.98,15.15-17.66,43.71-22.94,60.72-4.02,9.56,6.11,9.38,27.56,23.7,30.18,26.9,4.09,15.56-14.65,30.12-28.14,24.49-30.31,76.79-6.04,72.36,31.02,1.13,9.27-8.81,16.25-9.42,25.74,7.6,24.14,28.33.61,30.06-14.52Z"/>
    </g>
    <g>
      <path class="cls-2" d="M325,391.59c-5.33-25.35-47.19,34.71-53.88,36.79,0,0-45.85-14.52-45.85-14.52l-14.52-45.85c1.92-6.42,62.21-48.71,36.79-53.88-72.99-4.96-99.6,61.25-90.61,118.28-19.5,33.36-195.7,139.48-138.23,189.32,49.79,57.61,155.13-119.98,188.06-139.53,56.85,9.09,123.34-17.75,118.25-90.61ZM56.6,604.2c-13.84,14.25-35.91-7.81-21.66-21.65,13.84-14.25,35.91,7.81,21.66,21.65Z"/>
      <path class="cls-1" d="M442.76,255.38h-44.4l-6.36,20.88h-39.96l47.7-126.72h42.84l47.52,126.72h-40.98l-6.36-20.88h0ZM434.48,227.9l-13.86-45.54-13.92,45.54h27.78ZM501.14,149.48s39.3,0,39.3,0v126.72s-39.3,0-39.3,0v-126.72ZM471.2,19.58c-29.96,26.8-11.34,26.61-41.22,0-33.14-24.73-83.41-4.82-96.84,32.4-1.8,3.18-.85,9.71-5.86,9.74-37.71,6.41-63.21,44.41-64.06,81.93,2.89,11.37-8.95,15.05-15.15,21.9-26.97,24.6-33.56,66.2-13.14,96.68,4.09,9.11,14.55,14.96,18.12,23.58-7.24,32.73,9.19,67.39,36.36,85.62,11.51,7.84,24.35,12.87,38.1,13.56,1.62-.06,3.12,1.08,3.48,2.76,12.25,56.12,92.42,70.17,119.76,17.22,7.68-.44,12.57,17.74,20.16,20.76,35.64,29.81,93.92,3.61,104.94-38.76,16.96-8.28,38.45-15.32,49.5-34.74,13.48-16.99,14.68-39.72,17.64-60.12,9.76-6.72,18.02-14.25,24.72-23.34,25.68-32.59,15.79-79.73-14.76-105.36,1.27-25.01-.77-53.12-19.62-72.84-14.84-17.44-36.52-30.08-59.58-29.76-17.27-39.48-59.51-70.66-102.54-41.22h0ZM569.3,87.14c20.74-9.63,47.25,15.47,55.62,34.44,8.79,15.64,2.25,32.69,1.74,48.84,10.64,13.35,27.07,23.7,30.54,41.94,12.15,51.49-39.14,54.42-39.96,77.34,2.39,17.78-1.68,35.55-11.4,49.56-5.75,7.68-21.91,26.09-30.72,18.54-7.04-21.93-24.33-38.28-47.16-40.33-9.3,2.6-10.43,16.62-1.62,20.76,73.88,26.18-14.82,118.54-50.7,58.5-9.21-11.79-2.51-36.92-22.38-36.12-6.34-.17-14.16,3.09-13.86,10.08-19.55,99.5-145.07,10.63-56.7-32.28,8.89-4.22,7.61-18.05-1.62-20.76-23.7,2.25-41.12,19.11-48.9,41.7-18.95,8.78-43.85-15.93-52.02-33.11-9.33-15.85-3.15-33.32-2.22-49.86-18.33-18.67-40.23-41.72-28.86-70.62,5.4-18.85,23.87-28.62,37.2-41.46-1.25-31.04,6.91-69.47,41.4-78.66,1.8-.54,3.78.48,4.32,2.28,4.16,12.82,17.72,39.96,33.42,26.94,12.75-17.8-33.72-31.77-3.66-67.98,15.15-17.66,43.71-22.94,60.72-4.02,9.56,6.11,9.38,27.56,23.7,30.18,26.9,4.09,15.56-14.65,30.12-28.14,24.49-30.31,76.79-6.04,72.36,31.02,1.13,9.27-8.81,16.25-9.42,25.74,7.6,24.14,28.33.61,30.06-14.52Z"/>
    </g>
  </g>
</svg>