<?xml version="1.0" encoding="UTF-8"?>
<svg id="Ebene_2" data-name="Ebene 2" xmlns="http://www.w3.org/2000/svg" viewBox="0 0 676.08 625.54">
  <defs>
    <style>
      .cls-1 {
        fill: #010101;
        stroke-width: 0px;
      }
    </style>
  </defs>
  <g id="Ebene_1-2" data-name="Ebene 1">
    <path class="cls-1" d="M318.48,383.32c-.25-2.85-2.12-5.3-4.8-6.27-2.69-.98-5.7-.31-7.72,1.7l-41.36,41.36-45.85-14.52-14.52-45.85,41.36-41.36c2.02-2.02,2.68-5.03,1.71-7.71-.99-2.69-3.43-4.56-6.28-4.81-25.12-2.16-49.73,6.8-67.53,24.6-24.37,24.37-30.83,59.97-19.4,90.31-1.25,1.05-2.48,2.17-3.7,3.37L12.33,554.41s-.1.1-.15.15c-16.24,16.24-16.24,42.66,0,58.9,16.24,16.24,42.47,16.04,58.7-.2.07-.07.13-.13.2-.2l129.14-139.14c1.18-1.18,2.27-2.42,3.3-3.69,30.35,11.45,65.96,5.01,90.36-19.38,17.79-17.8,26.77-42.41,24.6-67.53ZM50.07,595.92c-5.98,5.98-15.67,5.98-21.66,0-5.98-5.98-5.98-15.67,0-21.65,5.98-5.98,15.67-5.98,21.66,0,5.98,5.98,5.98,15.68,0,21.65Z"/>
    <path class="cls-1" d="M436.24,247.1h-44.4l-6.36,20.88h-39.96l47.7-126.72h42.84l47.52,126.72h-40.98l-6.36-20.88h0ZM427.96,219.62l-13.86-45.54-13.92,45.54h27.78ZM494.62,141.2h39.3v126.72h-39.3v-126.72h0ZM464.68,11.3c-6.48,4.68-12.48,10.98-17.7,19.14-.24.42-.6.78-1.02,1.02-1.62,1.02-3.78.54-4.8-1.02-5.22-8.16-11.22-14.46-17.7-19.14-6.96-5.04-14.46-8.22-22.2-9.78h-.12c-7.56-1.56-15.3-1.56-22.74-.24-7.86,1.38-15.48,4.26-22.32,8.22-6.78,3.96-12.9,9.06-18,14.94-4.92,5.7-8.88,12.24-11.46,19.26h0c-.42,1.08-.78,2.22-1.14,3.42-.3,1.08-.66,2.28-.9,3.48-.3,1.56-1.62,2.7-3.3,2.76-8.04,1.2-16.02,4.14-23.46,8.52-7.56,4.5-14.58,10.62-20.64,17.94-6,7.32-11.04,15.96-14.64,25.56-3.36,9-5.4,18.9-5.82,29.4-.06,1.38-.06,2.7-.06,4.08,0,1.26.06,2.58.06,3.96.06,1.14-.42,2.34-1.44,3.06-4.92,3.54-9.36,7.2-13.32,10.98-4.02,3.9-7.56,7.92-10.62,12.06-4.98,6.78-8.64,13.86-11.1,21-2.58,7.44-3.84,15.06-3.96,22.56-.06,7.2.9,14.34,2.94,21.24,2.04,7.02,5.16,13.86,9.18,20.22h0c2.28,3.66,4.86,7.26,7.68,10.62,2.88,3.42,6,6.66,9.36,9.72.84.78,1.32,2.04,1.08,3.24-.96,4.56-1.44,9.06-1.62,13.5-.12,4.56.12,9.06.72,13.44,1.14,8.04,3.48,15.72,6.78,22.8,3.48,7.56,8.04,14.46,13.32,20.52,5.1,5.94,10.92,11.1,17.16,15.36,6.3,4.32,12.96,7.68,19.8,10.02,3.06,1.02,6.18,1.86,9.36,2.46,3,.6,6,.96,8.94,1.08,1.62-.06,3.12,1.08,3.48,2.76,1.56,7.14,4.44,13.86,8.4,19.92,4.14,6.36,9.36,12,15.36,16.68,7.56,5.88,16.44,10.32,25.8,12.66,8.82,2.22,18.12,2.64,27.24.72,8.16-1.68,16.08-5.16,23.4-10.68,6.72-5.1,12.96-11.94,18.18-20.82.3-.54.78-.96,1.38-1.26,1.68-.9,3.78-.24,4.68,1.44,4.32,8.04,9.6,14.46,15.48,19.32,6.36,5.22,13.38,8.76,20.76,10.8,9.42,2.58,19.26,2.58,28.8.6,10.2-2.1,20.04-6.54,28.5-12.66,6.66-4.74,12.54-10.56,17.22-17.16,4.44-6.18,7.74-13.08,9.66-20.34.24-1.38,1.32-2.58,2.82-2.82,8.82-1.56,17.52-5.22,25.5-10.68,7.98-5.46,15.24-12.66,21.18-21.24,5.46-7.92,9.84-17.04,12.66-27,2.64-9.3,3.9-19.38,3.48-30-.12-1.2.42-2.4,1.5-3.12,5.16-3.54,9.72-7.26,13.8-11.04,4.14-3.96,7.8-8.04,10.92-12.3h0c4.8-6.48,8.34-13.2,10.8-20.1,2.52-7.14,3.84-14.4,4.08-21.66.18-7.02-.66-13.98-2.46-20.82-1.8-6.9-4.62-13.56-8.28-19.86l-.12-.12c-2.4-4.14-5.22-8.1-8.34-11.94-3.12-3.84-6.66-7.44-10.44-10.86-.9-.78-1.38-2.04-1.14-3.3.84-4.14,1.38-8.28,1.56-12.36.18-4.14.06-8.22-.36-12.24-.9-8.34-3.12-16.26-6.36-23.64-3.42-7.8-7.98-15-13.32-21.3-5.16-6.12-11.1-11.46-17.46-15.9-6.36-4.44-13.14-7.92-20.04-10.26l-.18-.06c-3.66-1.26-7.38-2.16-11.04-2.76h-.12c-3.6-.6-7.2-.84-10.74-.78-1.62.12-3.18-.96-3.6-2.64-.6-2.46-1.38-4.86-2.28-7.2-.96-2.4-2.04-4.74-3.3-7.08-3.24-6-7.5-11.52-12.48-16.26-5.1-4.86-10.92-9-17.16-12.18-6.42-3.24-13.44-5.52-20.64-6.54-6.84-.96-13.86-.84-20.76.6-7.74,1.86-15.36,5.04-22.32,10.08h0ZM562.78,78.86c.42-1.32,1.62-2.34,3.12-2.46,2.52-.18,5.1-.06,7.68.36,2.64.42,5.28,1.08,7.92,1.98,4.98,1.68,9.96,4.26,14.58,7.5,4.56,3.18,8.88,7.08,12.6,11.52l.06.12c3.9,4.62,7.2,9.78,9.66,15.42,2.34,5.28,3.9,10.92,4.56,16.86.42,3.96.42,8.1-.06,12.3-.42,3.9-1.32,7.92-2.7,11.94l-.06.24c-.84,2.52-.78,5.16,0,7.5.84,2.4,2.4,4.56,4.62,6l.18.12c4.2,3.12,7.92,6.54,11.16,10.14,3.36,3.66,6.24,7.62,8.64,11.7,2.64,4.5,4.68,9.18,5.94,13.98,1.32,4.74,1.92,9.54,1.74,14.28-.12,4.92-1.08,9.84-2.82,14.7-1.68,4.62-4.14,9.18-7.38,13.62l-.06.06c-2.94,4.02-6.66,7.98-11.04,11.76-4.2,3.6-9.06,7.02-14.64,10.32l-.18.12c-2.22,1.26-3.84,3.18-4.8,5.4s-1.26,4.68-.78,7.08l.06.48c1.14,9.18.6,17.94-1.26,25.92-2.04,8.7-5.58,16.5-10.2,23.16-3.54,5.1-7.62,9.48-12,12.96-4.5,3.6-9.36,6.24-14.34,7.86h-.06c-1.8.54-3.78-.48-4.32-2.28-6.78-22.14-18.48-29.28-38.28-39.48l-.42-.24c-2.76-1.32-5.76-1.44-8.46-.6-2.7.84-5.04,2.7-6.42,5.4l-.18.36c-1.32,2.76-1.44,5.76-.6,8.46.9,2.7,2.82,5.1,5.58,6.54,16.56,8.46,28.8,14.88,28.62,35.64-.06,6.18-1.98,12.18-5.22,17.58-3.42,5.7-8.34,10.8-14.04,14.94-5.82,4.2-12.36,7.26-19.08,8.76-6.42,1.5-13.02,1.56-19.2-.12-10.44-2.88-17.22-9.84-21.78-18.3-4.32-8.04-6.72-17.4-8.46-25.92-.12-.3-.12-.66-.12-.96,0-4.32-3.36-7.14-7.74-8.4-1.92-.6-4.02-.84-6.06-.84s-4.14.3-6.06.84c-4.32,1.32-7.68,4.14-7.68,8.4,0,.3-.06.54-.12.84-3.36,13.32-8.22,23.34-13.92,30.54-6.66,8.46-14.46,13.08-22.5,14.76-5.88,1.2-11.94.9-17.7-.6-6.06-1.62-11.82-4.56-16.86-8.4-4.98-3.9-9.12-8.64-12-13.98-2.76-5.1-4.38-10.74-4.38-16.5,0-21.84,13.2-29.16,30.66-38.1,2.76-1.44,4.68-3.84,5.58-6.54.9-2.76.72-5.82-.66-8.64-1.44-2.76-3.84-4.68-6.54-5.58-2.7-.84-5.7-.72-8.46.6l-.18.06c-20.58,10.5-32.88,18.18-40.26,41.04-.42,1.5-1.86,2.64-3.48,2.58-2.04-.06-4.08-.3-6.18-.72-2.04-.42-4.08-.96-6-1.68-4.86-1.68-9.72-4.14-14.28-7.26-4.5-3.12-8.7-6.84-12.42-11.16-3.84-4.44-7.14-9.42-9.66-14.88-2.4-5.1-4.08-10.56-4.92-16.26v-.12c-.6-4.2-.72-8.58-.24-13.08.42-4.2,1.32-8.58,2.82-12.9l.06-.18c.84-2.46.78-5.04.06-7.32l-.06-.12c-.78-2.4-2.34-4.5-4.5-6l-.12-.12c-3.84-2.88-7.32-5.94-10.38-9.3-3.12-3.36-5.88-6.96-8.16-10.68-2.76-4.5-4.92-9.3-6.36-14.22-1.38-4.8-2.1-9.72-2.04-14.76.06-5.1.96-10.32,2.76-15.42,1.74-4.86,4.26-9.72,7.74-14.46,2.94-4.02,6.54-7.98,10.86-11.76,4.14-3.66,8.82-7.14,14.22-10.44,1.98-1.2,3.42-2.88,4.38-4.8l.06-.18c.96-1.98,1.32-4.2,1.02-6.42-.06-.24-.06-.48-.06-.72v-.12c-.3-2.1-.48-4.2-.6-6.24-.12-2.22-.12-4.44-.06-6.6.3-7.86,1.8-15.24,4.26-21.9,2.64-7.14,6.36-13.56,10.8-19.02,3.66-4.5,7.86-8.28,12.24-11.22,4.38-2.94,9-5.04,13.74-6.24h0c1.8-.54,3.78.48,4.32,2.28,3.72,11.76,8.4,19.14,17.34,27.48l.36.3c2.22,2.04,5.1,3,7.92,2.88s5.58-1.26,7.62-3.48l.18-.24c2.04-2.22,3-5.1,2.88-7.92s-1.32-5.64-3.6-7.8c-7.2-6.66-8.82-10.8-10.98-17.52-2.52-7.74-2.1-15.3.36-22.02,1.68-4.62,4.32-8.94,7.68-12.72,3.3-3.78,7.32-7.14,11.76-9.72l.18-.12c4.56-2.64,9.48-4.56,14.58-5.52,4.86-.9,9.84-.96,14.7.06,6.84,1.44,13.56,5.04,19.5,11.28,5.22,5.46,9.84,13.02,13.5,22.98l.06.12c1.26,3.9,5.34,6.18,10.14,7.08,2.16.42,4.44.54,6.66.42h.06c2.28-.12,4.44-.54,6.48-1.2,3.6-1.2,6.42-3.12,7.08-5.58v-1.38c0-6.96,4.14-14.34,9.84-20.4,6.24-6.6,14.58-11.82,21.6-13.26,4.44-.9,8.94-.96,13.32-.3,4.56.72,9,2.16,13.2,4.26l.36.12c4.26,2.16,8.16,4.92,11.58,8.16,3.36,3.24,6.24,6.9,8.4,10.92,3.42,6.3,4.98,13.5,3.9,21.12-.96,6.66-1.2,10.86-6.78,17.52l-.06.06c-1.98,2.34-2.82,5.28-2.58,8.16.24,2.76,1.5,5.46,3.72,7.38l.36.3c2.34,1.92,5.22,2.7,8.04,2.46,2.76-.24,5.46-1.5,7.38-3.72l.3-.42c5.76-6.84,7.62-11.88,10.26-20.52h0Z"/>
  </g>
</svg>